<?xml version="1.0" encoding="UTF-8"?>
<!DOCTYPE svg PUBLIC "-//W3C//DTD SVG 1.1//EN" "http://www.w3.org/Graphics/SVG/1.1/DTD/svg11.dtd">
<!-- Creator: CorelDRAW -->
<svg xmlns="http://www.w3.org/2000/svg" xml:space="preserve" width="190.754mm" height="67.9233mm" version="1.1" style="shape-rendering:geometricPrecision; text-rendering:geometricPrecision; image-rendering:optimizeQuality; fill-rule:evenodd; clip-rule:evenodd"
viewBox="0 0 19064.89 6788.58"
 xmlns:xlink="http://www.w3.org/1999/xlink"
 xmlns:xodm="http://www.corel.com/coreldraw/odm/2003">
 <defs>
  <style type="text/css">
   <![CDATA[
    .fil1 {fill:white}
    .fil0 {fill:white;fill-rule:nonzero}
   ]]>
  </style>
 </defs>
 <g id="Camada_x0020_1">
  <metadata id="CorelCorpID_0Corel-Layer"/>
  <g id="_1694117274656">
   <g>
    <path class="fil0" d="M851.13 5987.15c-159.46,0 -302.35,-25.89 -428.67,-77.66 -126.32,-51.78 -227.27,-128.4 -302.86,-229.87 -75.59,-101.47 -115.46,-223.66 -119.59,-366.55l565.35 0c8.29,80.77 36.24,142.38 83.87,184.83 47.62,42.46 109.75,63.68 186.38,63.68 78.69,0 140.81,-18.12 186.38,-54.36 45.55,-36.24 68.34,-86.46 68.34,-150.66 0,-53.85 -18.12,-98.37 -54.36,-133.58 -36.25,-35.2 -80.77,-64.19 -133.58,-86.97 -52.81,-22.79 -127.88,-48.67 -225.21,-77.66 -140.82,-43.5 -255.76,-86.98 -344.8,-130.47 -89.05,-43.49 -165.68,-107.69 -229.87,-192.59 -64.19,-84.9 -96.3,-195.7 -96.3,-332.38 0,-202.95 73.52,-361.88 220.55,-476.82 147.04,-114.94 338.59,-172.4 574.67,-172.4 240.22,0 433.85,57.47 580.88,172.4 147.03,114.94 225.73,274.91 236.08,479.92l-574.66 0c-4.15,-70.41 -30.03,-125.81 -77.67,-166.19 -47.62,-40.39 -108.72,-60.58 -183.27,-60.58 -64.19,0 -115.97,17.09 -155.31,51.26 -39.35,34.16 -59.02,83.34 -59.02,147.55 0,70.41 33.13,125.28 99.4,164.63 66.27,39.35 169.82,81.8 310.64,127.36 140.81,47.63 255.23,93.19 343.24,136.67 88.01,43.5 164.12,106.65 228.31,189.49 64.2,82.84 96.3,189.49 96.3,319.95 0,124.25 -31.58,237.12 -94.74,338.59 -63.17,101.47 -154.8,182.23 -274.91,242.29 -120.11,60.06 -261.97,90.09 -425.56,90.09zm2368.89 -21.75l-528.08 -726.88 0 726.88 -531.18 0 0 -2298.67 531.18 0 0 1270.48 524.97 -705.13 655.43 0 -720.66 869.77 726.88 863.55 -658.54 0zm2819.3 -1733.32l-1087.22 2556.5 -571.55 0 397.6 -882.19 -705.13 -1674.3 593.31 0 400.71 1084.1 397.61 -1084.1 574.67 0z"/>
    <path class="fil0" d="M8124.78 3555.03l0 322.57 -1023.23 0 0 711.07 797.77 0 0 322.57 -797.77 0 0 1054.46 -395.42 0 0 -2410.67 1418.66 0zm1037.63 246.26c-71.69,0 -131.81,-24.28 -180.37,-72.84 -48.56,-48.56 -72.84,-108.68 -72.84,-180.37 0,-71.68 24.28,-131.8 72.84,-180.36 48.56,-48.56 108.68,-72.84 180.37,-72.84 69.37,0 128.34,24.28 176.89,72.84 48.56,48.56 72.84,108.68 72.84,180.36 0,71.69 -24.28,131.81 -72.84,180.37 -48.55,48.56 -107.52,72.84 -176.89,72.84zm194.24 253.21l0 1911.19 -395.42 0 0 -1911.19 395.42 0zm1682.78 1942.41c-150.31,0 -285,-27.16 -404.09,-81.5 -119.09,-54.34 -213.32,-128.34 -282.69,-222 -69.37,-93.65 -106.37,-198.28 -111,-313.91l409.29 0c6.94,80.94 45.67,148.58 116.21,202.92 70.52,54.34 158.97,81.51 265.34,81.51 111,0 197.13,-21.4 258.41,-64.17 61.28,-42.78 91.92,-97.7 91.92,-164.76 0,-71.68 -34.11,-124.87 -102.32,-159.55 -68.21,-34.69 -176.32,-72.84 -324.31,-114.47 -143.37,-39.31 -260.15,-77.47 -350.33,-114.47 -90.19,-36.99 -168.23,-93.65 -234.13,-169.96 -65.9,-76.31 -98.86,-176.9 -98.86,-301.76 0,-101.75 30.06,-194.82 90.18,-279.23 60.13,-84.4 146.26,-150.89 258.41,-199.44 112.16,-48.56 241.07,-72.85 386.76,-72.85 217.36,0 392.52,54.92 525.49,164.76 132.96,109.84 204.07,259.57 213.31,449.18l-395.41 0c-6.94,-85.55 -41.63,-153.76 -104.06,-204.65 -62.44,-50.87 -146.84,-76.31 -253.21,-76.31 -104.05,0 -183.83,19.66 -239.33,58.97 -55.5,39.31 -83.24,91.34 -83.24,156.08 0,50.88 18.5,93.66 55.49,128.34 37,34.69 82.09,61.86 135.28,81.51 53.19,19.66 131.81,44.52 235.87,74.58 138.74,37 252.63,74.57 341.65,112.73 89.03,38.15 165.92,94.23 230.66,168.23 64.75,74 98.28,172.27 100.59,294.83 0,108.68 -30.06,205.81 -90.19,291.36 -60.12,85.56 -145.1,152.63 -254.94,201.18 -109.84,48.56 -238.75,72.84 -386.75,72.84zm2615.83 -1973.63c145.69,0 275.76,31.22 390.22,93.66 114.46,62.44 204.65,154.92 270.55,277.49 65.9,122.55 98.86,270.55 98.86,443.97l0 1127.3 -391.95 0 0 -1068.33c0,-171.12 -42.79,-302.34 -128.34,-393.68 -85.56,-91.34 -202.34,-137.01 -350.33,-137.01 -148,0 -265.35,45.67 -352.07,137.01 -86.71,91.34 -130.07,222.57 -130.07,393.68l0 1068.33 -395.42 0 0 -2566.76 395.42 0 0 877.55c67.05,-80.94 152.04,-143.37 254.94,-187.31 102.9,-43.94 215.63,-65.9 338.18,-65.9z"/>
   </g>
   <g>
    <path class="fil1" d="M16286.44 5996.81c-172.78,56.23 -665.08,36.69 -971.3,-42.64 -47.77,-12.37 -330.19,-106.68 -261.39,-202.23 0,0 382.56,-72.15 672.38,-59.39 266.09,11.72 481.32,118.19 560.31,304.25z"/>
    <path class="fil1" d="M16825.53 5624.37c115.36,11.63 90.94,87.89 485.37,24.08 99.04,-16.03 271.23,-83.97 334.8,-125.32 46.37,-30.16 84.65,-56.48 130.36,-89.38 44.87,-32.3 87.22,-62.45 126.7,-98.85 163.06,-150.33 172.86,-155.02 320.59,-325.8l92.91 -123.2c-14.61,-35.61 -39.64,-51.1 -73.33,-58.46 -168.99,-36.91 -377.31,82.35 -511.45,146.11 -359.77,171 -596.78,350.9 -882.46,613.41 -16.86,15.5 -21.01,12.63 -23.5,37.41z"/>
    <path class="fil1" d="M15331.25 4810.29c48.95,55.75 174.32,135.84 237.79,169.81 93.5,50.03 177.5,89.1 280.02,123.86 380.56,129.03 764.39,112.76 1138.17,-50.04 183.62,-79.98 416,-227.19 553.39,-373.9 72.33,-77.25 152.78,-152.11 200.66,-248.84 -65.96,-75.11 -109.95,-121.49 -205.96,-175.07 -41.64,-23.23 -80.2,-48.98 -124.07,-64.58 -288.87,-102.72 -464.58,-127.59 -796.94,-83.98 -401,52.62 -766.9,224.83 -1044.16,462.45l-123.78 113.36c-21.25,22.71 -34.87,39.28 -55.3,61.73l-59.82 65.22z"/>
    <path class="fil1" d="M18913.28 3690.4c-38.42,-237.48 -306.12,-38.47 -398.48,45.41 -73.05,66.35 -140.07,140.69 -196.18,218.54 -61.47,85.24 -215.04,277.17 -212.34,390.6 1.21,51.25 55.24,99.48 91.12,121.1 91.92,55.38 187.72,78.86 316.7,23.37 114.6,-49.3 192.5,-167.68 249.24,-268.57 48.41,-86.07 55.83,-109.79 93.83,-204.07 27.05,-67.09 71,-234.37 56.11,-326.39z"/>
    <path class="fil1" d="M15009.12 1503.77c65.44,70.18 151.02,116.08 226.21,166.72 219.83,148.04 593.66,251.64 861.79,274.53 308.51,26.34 671.71,-14.82 955,-163.01 132.24,-69.17 261.43,-170.96 348.35,-292.19 22.38,-31.19 46.85,-57.41 62.25,-90.98 -31.44,-33.71 -237.98,-185.65 -272.49,-206.18 -182.91,-108.81 -285.05,-153.68 -482.55,-216.32 -157.91,-50.09 -436.16,-87.26 -601.8,-60.47 -282.86,45.76 -469.67,91.48 -704.94,245.54 -100.9,66.08 -269.41,197.59 -346.3,293.67 -22.25,27.8 -15.35,25.89 -45.52,48.68z"/>
    <path class="fil1" d="M14452.61 1529.97c-54.97,-26.89 -175.86,-48.03 -234.96,-53.72 -87.07,-8.39 -163.43,-11.43 -252.52,-5.33 -330.7,22.69 -617.72,157.01 -850.54,399.71 -114.36,119.21 -244.49,305.12 -302.46,460.46 -30.53,81.78 -67.98,164.33 -73.7,253.18 74.08,36.22 122.29,57.56 212.4,67.84 39.08,4.46 76.62,11.81 114.97,9.74 252.55,-13.57 394.2,-50.47 633.36,-189.27 288.54,-167.46 512.37,-414.8 647.94,-683.79l58.22 -125.61c8.97,-24.04 14.06,-40.99 22.48,-64.56l24.82 -68.65z"/>
    <path class="fil1" d="M17902.47 1360.75c22.02,136.11 187.29,246.68 309.89,342.63 89.58,70.11 420.48,285.98 539.51,243.49 45.67,-16.3 86.54,-54.25 69.84,-97.56 -36.27,-94.07 -181.55,-392.87 -287.46,-540.43 -28.11,-39.17 -64.15,-64.68 -91.39,-85.06 -321.61,-240.7 -563.41,-5.33 -540.39,136.93z"/>
    <g>
     <path class="fil1" d="M13874.77 3503.83l118.51 109.44c110.46,97.65 286.8,188.3 418.11,236.62 584.54,215.14 1196.95,-21.87 1563,-486.73l168.25 -243.32 -68.06 -54.48c-91.66,-69.79 -186.28,-139.85 -288.33,-189.05 -495.07,-238.64 -1041.73,-252.61 -1479.18,68.59 -164.21,120.56 -364.84,349.3 -432.29,558.92z"/>
     <path class="fil1" d="M16570.52 3033.46c34.57,42.84 62.83,62.02 104.88,96.99 270.7,209.29 481.76,337.54 840.01,370.64 327.41,30.26 852.98,-189.05 956.02,-552.43 60.58,-213.67 -88.66,-331.65 -243.76,-444.23 -323.1,-234.55 -661.38,-198.39 -1008.02,-51.24 -249.46,105.9 -466.8,385.8 -649.13,580.29z"/>
     <path class="fil1" d="M18999.57 3151.87c50.18,-8.12 69.48,-77.8 64.56,-157.48 -8.68,-140.56 -26.54,-389.26 -58.41,-517.48 -18.37,-73.85 -45.32,-100.12 -106.29,-90.26 -105.95,17.14 -160.8,268.65 -146.68,403.8 8.87,84.92 115.61,382.66 246.81,361.43z"/>
    </g>
    <g>
     <path class="fil1" d="M16308.44 164.01c169.34,166.85 756.89,431.86 1161.65,518.1 63.15,13.46 448.81,68.24 424.17,-83.81 0,0 -405.52,-308.15 -752.16,-462.69 -318.25,-141.88 -632.4,-143.15 -833.65,28.4z"/>
     <path class="fil1" d="M15616.09 0c-402.41,17.82 -836.97,165.86 -1203.89,351.16 -373.69,192.12 -662.05,475.6 -685.99,493.56 392.92,18.81 920.41,-42.39 1238.31,-160.65 340.5,-159.22 587.45,-422.36 651.58,-684.06z"/>
    </g>
   </g>
  </g>
 </g>
</svg>
