<?xml version="1.0" encoding="UTF-8"?>
<!DOCTYPE svg PUBLIC "-//W3C//DTD SVG 1.1//EN" "http://www.w3.org/Graphics/SVG/1.1/DTD/svg11.dtd">
<!-- Creator: CorelDRAW -->
<svg xmlns="http://www.w3.org/2000/svg" xml:space="preserve" width="120.88mm" height="62.1773mm" version="1.1" style="shape-rendering:geometricPrecision; text-rendering:geometricPrecision; image-rendering:optimizeQuality; fill-rule:evenodd; clip-rule:evenodd"
viewBox="0 0 12077.45 6212.32"
 xmlns:xlink="http://www.w3.org/1999/xlink"
 xmlns:xodm="http://www.corel.com/coreldraw/odm/2003">
 <defs>
  <style type="text/css">
   <![CDATA[
    .fil1 {fill:white}
    .fil0 {fill:white;fill-rule:nonzero}
   ]]>
  </style>
 </defs>
 <g id="Camada_x0020_1">
  <metadata id="CorelCorpID_0Corel-Layer"/>
  <g id="_1693283670080">
   <g>
    <path class="fil0" d="M850.86 2730.47c-159.41,0 -302.26,-25.88 -428.54,-77.63 -126.28,-51.76 -227.2,-128.36 -302.77,-229.8 -75.56,-101.44 -115.42,-223.59 -119.56,-366.43l565.17 0c8.28,80.74 36.23,142.34 83.85,184.77 47.61,42.44 109.71,63.66 186.32,63.66 78.66,0 140.77,-18.11 186.32,-54.34 45.54,-36.23 68.32,-86.43 68.32,-150.61 0,-53.83 -18.11,-98.33 -54.34,-133.53 -36.24,-35.19 -80.74,-64.17 -133.53,-86.94 -52.79,-22.78 -127.84,-48.66 -225.13,-77.63 -140.78,-43.48 -255.68,-86.95 -344.69,-130.43 -89.02,-43.47 -165.63,-107.66 -229.8,-192.53 -64.17,-84.88 -96.27,-195.64 -96.27,-332.27 0,-202.88 73.5,-361.76 220.48,-476.66 146.99,-114.9 338.49,-172.35 574.49,-172.35 240.14,0 433.71,57.45 580.69,172.35 146.98,114.9 225.65,274.82 236,479.77l-574.48 0c-4.15,-70.39 -30.02,-125.77 -77.64,-166.14 -47.61,-40.37 -108.69,-60.56 -183.21,-60.56 -64.17,0 -115.93,17.09 -155.26,51.25 -39.34,34.15 -59,83.32 -59,147.5 0,70.39 33.12,125.24 99.36,164.58 66.25,39.34 169.76,81.78 310.54,127.32 140.77,47.62 255.15,93.16 343.13,136.63 87.98,43.48 164.07,106.62 228.24,189.42 64.18,82.82 96.27,189.42 96.27,319.85 0,124.21 -31.57,237.04 -94.71,338.49 -63.14,101.44 -154.76,182.17 -274.82,242.21 -120.08,60.04 -261.88,90.06 -425.43,90.06zm2368.14 -21.74l-527.91 -726.65 0 726.65 -531.01 0 0 -2297.94 531.01 0 0 1270.07 524.8 -704.91 655.22 0 -720.43 869.49 726.65 863.28 -658.33 0zm2818.4 -1732.77l-1086.87 2555.68 -571.37 0 397.47 -881.91 -704.91 -1673.77 593.12 0 400.58 1083.76 397.48 -1083.76 574.49 0z"/>
    <path class="fil0" d="M1463.29 3771.21l0 322.47 -1022.91 0 0 710.84 797.52 0 0 322.47 -797.52 0 0 1054.12 -395.3 0 0 -2409.9 1418.2 0zm1037.3 246.19c-71.67,0 -131.77,-24.27 -180.31,-72.82 -48.55,-48.55 -72.82,-108.65 -72.82,-180.31 0,-71.66 24.27,-131.76 72.82,-180.3 48.55,-48.55 108.65,-72.82 180.31,-72.82 69.35,0 128.3,24.27 176.84,72.82 48.55,48.55 72.82,108.65 72.82,180.3 0,71.67 -24.27,131.77 -72.82,180.31 -48.54,48.55 -107.49,72.82 -176.84,72.82zm194.18 253.13l0 1910.59 -395.3 0 0 -1910.59 395.3 0zm1682.24 1941.79c-150.26,0 -284.91,-27.16 -403.96,-81.48 -119.06,-54.32 -213.25,-128.3 -282.6,-221.93 -69.35,-93.62 -106.34,-198.22 -110.96,-313.81l409.16 0c6.93,80.91 45.66,148.53 116.17,202.85 70.5,54.32 158.92,81.49 265.26,81.49 110.96,0 197.07,-21.39 258.32,-64.15 61.26,-42.76 91.89,-97.66 91.89,-164.71 0,-71.66 -34.1,-124.83 -102.29,-159.5 -68.19,-34.68 -176.27,-72.82 -324.21,-114.43 -143.33,-39.3 -260.06,-77.44 -350.21,-114.43 -90.16,-36.98 -168.17,-93.62 -234.06,-169.9 -65.88,-76.28 -98.82,-176.85 -98.82,-301.67 0,-101.72 30.05,-194.76 90.15,-279.14 60.11,-84.38 146.21,-150.84 258.32,-199.38 112.12,-48.55 240.99,-72.83 386.63,-72.83 217.29,0 392.4,54.9 525.32,164.71 132.91,109.8 204,259.48 213.24,449.04l-395.29 0c-6.93,-85.53 -41.61,-153.72 -104.03,-204.58 -62.42,-50.86 -146.79,-76.28 -253.13,-76.28 -104.02,0 -183.77,19.65 -239.25,58.95 -55.48,39.3 -83.22,91.31 -83.22,156.03 0,50.87 18.49,93.63 55.47,128.3 36.99,34.68 82.07,61.84 135.23,81.49 53.17,19.65 131.77,44.5 235.79,74.56 138.7,36.99 252.55,74.55 341.54,112.69 89,38.14 165.87,94.2 230.59,168.17 64.73,73.98 98.24,172.22 100.56,294.73 0,108.65 -30.05,205.74 -90.16,291.27 -60.1,85.54 -145.05,152.58 -254.86,201.11 -109.8,48.55 -238.67,72.82 -386.62,72.82zm2615 -1973c145.64,0 275.67,31.21 390.1,93.63 114.42,62.42 204.58,154.88 270.46,277.4 65.88,122.51 98.82,270.46 98.82,443.83l0 1126.94 -391.83 0 0 -1067.99c0,-171.06 -42.77,-302.25 -128.3,-393.56 -85.54,-91.31 -202.27,-136.97 -350.21,-136.97 -147.95,0 -265.27,45.66 -351.95,136.97 -86.68,91.31 -130.03,222.5 -130.03,393.56l0 1067.99 -395.3 0 0 -2565.94 395.3 0 0 877.28c67.03,-80.91 151.99,-143.33 254.86,-187.25 102.87,-43.92 215.56,-65.88 338.08,-65.88z"/>
   </g>
   <g>
    <path class="fil1" d="M9299.89 5994.91c-172.73,56.21 -664.87,36.68 -970.99,-42.62 -47.76,-12.37 -330.08,-106.65 -261.3,-202.16 0,0 382.44,-72.13 672.16,-59.37 266.01,11.72 481.17,118.16 560.13,304.16z"/>
    <path class="fil1" d="M9838.81 5622.58c115.32,11.63 90.91,87.86 485.22,24.07 99,-16.03 271.14,-83.95 334.7,-125.28 46.36,-30.15 84.63,-56.46 130.32,-89.35 44.85,-32.29 87.19,-62.43 126.66,-98.81 163.01,-150.28 172.81,-154.97 320.49,-325.7l92.88 -123.16c-14.61,-35.6 -39.63,-51.09 -73.31,-58.44 -168.93,-36.9 -377.19,82.33 -511.28,146.06 -359.66,170.94 -596.59,350.78 -882.18,613.22 -16.86,15.5 -21,12.63 -23.49,37.4z"/>
    <path class="fil1" d="M8345 4808.76c48.94,55.73 174.27,135.8 237.71,169.75 93.47,50.02 177.45,89.07 279.93,123.82 380.44,128.99 764.14,112.72 1137.81,-50.03 183.56,-79.95 415.87,-227.12 553.22,-373.78 72.31,-77.22 152.73,-152.06 200.6,-248.76 -65.94,-75.08 -109.91,-121.45 -205.89,-175.02 -41.62,-23.22 -80.17,-48.97 -124.03,-64.56 -288.78,-102.69 -464.44,-127.55 -796.69,-83.96 -400.87,52.6 -766.65,224.75 -1043.83,462.31l-123.74 113.32c-21.24,22.7 -34.86,39.27 -55.28,61.71l-59.8 65.2z"/>
    <path class="fil1" d="M11925.89 3689.23c-38.41,-237.4 -306.02,-38.46 -398.35,45.4 -73.03,66.33 -140.03,140.65 -196.12,218.47 -61.45,85.22 -214.97,277.08 -212.28,390.48 1.21,51.24 55.22,99.45 91.09,121.06 91.89,55.36 187.66,78.83 316.6,23.36 114.56,-49.29 192.44,-167.62 249.16,-268.49 48.4,-86.05 55.81,-109.75 93.8,-204 27.04,-67.07 70.98,-234.3 56.09,-326.29z"/>
    <path class="fil1" d="M8022.97 1503.29c65.42,70.16 150.97,116.04 226.14,166.66 219.76,147.99 593.47,251.56 861.52,274.44 308.41,26.33 671.5,-14.82 954.7,-162.96 132.19,-69.15 261.34,-170.9 348.24,-292.1 22.37,-31.18 46.84,-57.39 62.23,-90.95 -31.43,-33.7 -237.9,-185.59 -272.4,-206.11 -182.85,-108.78 -284.96,-153.63 -482.4,-216.25 -157.86,-50.08 -436.02,-87.23 -601.61,-60.45 -282.77,45.75 -469.52,91.45 -704.72,245.47 -100.87,66.06 -269.33,197.53 -346.19,293.57 -22.24,27.8 -15.35,25.88 -45.51,48.67z"/>
    <path class="fil1" d="M7466.64 1529.49c-54.95,-26.88 -175.81,-48.02 -234.89,-53.7 -87.04,-8.38 -163.38,-11.43 -252.44,-5.33 -330.59,22.68 -617.52,156.96 -850.27,399.58 -114.32,119.18 -244.42,305.02 -302.37,460.31 -30.52,81.76 -67.96,164.28 -73.68,253.1 74.06,36.21 122.25,57.54 212.34,67.82 39.07,4.46 76.59,11.81 114.93,9.74 252.47,-13.57 394.08,-50.46 633.16,-189.21 288.45,-167.4 512.2,-414.67 647.74,-683.57l58.2 -125.57c8.96,-24.03 14.06,-40.97 22.47,-64.54l24.81 -68.63z"/>
    <path class="fil1" d="M10915.4 1360.32c22.01,136.07 187.23,246.61 309.79,342.52 89.55,70.09 420.34,285.89 539.34,243.41 45.66,-16.3 86.51,-54.23 69.82,-97.53 -36.26,-94.04 -181.49,-392.75 -287.37,-540.26 -28.11,-39.16 -64.13,-64.66 -91.36,-85.04 -321.51,-240.62 -563.23,-5.33 -540.22,136.89z"/>
    <g>
     <path class="fil1" d="M6888.98 3502.72l118.48 109.4c110.42,97.61 286.71,188.24 417.98,236.54 584.35,215.07 1196.57,-21.86 1562.5,-486.58l168.19 -243.24 -68.04 -54.46c-91.63,-69.77 -186.22,-139.81 -288.24,-188.99 -494.91,-238.56 -1041.4,-252.53 -1478.71,68.57 -164.16,120.53 -364.72,349.19 -432.15,558.74z"/>
     <path class="fil1" d="M9583.87 3032.5c34.56,42.82 62.81,62 104.85,96.96 270.61,209.23 481.61,337.44 839.74,370.52 327.3,30.25 852.71,-188.99 955.72,-552.26 60.56,-213.6 -88.63,-331.54 -243.68,-444.09 -323,-234.48 -661.17,-198.33 -1007.7,-51.23 -249.38,105.87 -466.65,385.67 -648.92,580.1z"/>
     <path class="fil1" d="M12012.16 3150.87c50.17,-8.11 69.46,-77.77 64.54,-157.43 -8.67,-140.52 -26.53,-389.14 -58.39,-517.32 -18.36,-73.83 -45.31,-100.09 -106.26,-90.23 -105.92,17.14 -160.75,268.57 -146.63,403.67 8.86,84.9 115.57,382.54 246.74,361.32z"/>
    </g>
    <g>
     <path class="fil1" d="M9321.88 163.96c169.28,166.79 756.65,431.72 1161.28,517.94 63.13,13.46 448.67,68.22 424.03,-83.79 0,0 -405.39,-308.05 -751.92,-462.55 -318.15,-141.84 -632.2,-143.11 -833.38,28.4z"/>
     <path class="fil1" d="M8629.75 0c-402.28,17.81 -836.7,165.81 -1203.51,351.04 -373.57,192.06 -661.84,475.45 -685.77,493.4 392.8,18.8 920.12,-42.37 1237.91,-160.6 340.39,-159.17 587.26,-422.22 651.37,-683.84z"/>
    </g>
   </g>
  </g>
 </g>
</svg>
